{"title":"Episode.50.2011.DVDRip.SweSub.Xvid","uid":8353290,"size":733577444,"categoryP":"video","categoryS":"movies","magnet":"?xt=urn:btih:bd65e8fb5286286aab4b3c15069b4da1132841b0&amp;dn=Episode.50.2011.DVDRip.SweSub.Xvid&amp;tr=udp%3A%2F%2Ftracker.openbittorrent.com%3A80&amp;tr=udp%3A%2F%2Fopen.demonii.com%3A1337&amp;tr=udp%3A%2F%2Ftracker.coppersurfer.tk%3A6969&amp;tr=udp%3A%2F%2Fexodus.desync.com%3A6969","seeders":1,"leechers":0,"uploader":"nordjok","files":-1,"time":1365411235,"description":"                     Swedish Hardsub\n\n     &lt;a href=&quot;\nhttp://www.imdb.com/title/tt1728976/&quot; rel=&quot;nofollow&quot; target=&quot;_NEW&quot;&gt;\nhttp://www.imdb.com/title/tt1728976/&lt;/a&gt;\n\n\nGeneral\nComplete name                       : Episode.50.2011.DVDRip.SweSub.Xvid.avi\nFormat                              : AVI\nFile size                           : 700 MiB\nDuration                            : 1h 17mn\n\nVideo\nID                                  : 0\nFormat                              : MPEG-4 Visual\nFormat profile                      : Advanced Simple@L5\nFormat settings, BVOP               : 1\nFormat settings, QPel               : No\nFormat settings, GMC                : No warppoints\nFormat settings, Matrix             : Default (H.263)\nCodec ID                            : XVID\nCodec ID/Hint                       : XviD\nDuration                            : 1h 17mn\nBit rate                            : 1028 Kbps\nWidth                               : 656 pixels\nHeight                              : 368 pixels\nDisplay aspect ratio                : 16:9\nFrame rate                          : 25.000 fps\nColor space                         : YUV\nChroma subsampling                  : 4:2:0\nBit depth                           : 8 bits\nScan type                           : Progressive\nCompression mode                    : Lossy\nBits/(Pixel*Frame)                  : 0.170\nStream size                         : 570 MiB (81%)\n\n\nAudio\nID                                  : 1\nFormat                              : AC-3\nFormat/Info                         : Audio Coding 3\nMode extension                      : CM (complete main)\nFormat settings, Endianness         : Big\nCodec ID                            : 2000\nDuration                            : 1h 17mn\nBit rate mode                       : Constant\nBit rate                            : 224 Kbps\nChannel(s)                          : 2 channels\nChannel positions                   : Front: L R\nSampling rate                       : 48.0 KHz\nBit depth                           : 16 bits\nCompression mode                    : Lossy\nStream size                         : 124 MiB (18%)\nAlignment                           : Split accross interleaves\nInterleave, duration                : 40 ms (1.00 video frame)\nInterleave, preload duration        : 500 ms\n\n","torrent":{"xt":"urn:btih:bd65e8fb5286286aab4b3c15069b4da1132841b0","amp;dn":"Episode.50.2011.DVDRip.SweSub.Xvid","amp;tr":["udp%3A%2F%2Ftracker.openbittorrent.com%3A80","udp%3A%2F%2Fopen.demonii.com%3A1337","udp%3A%2F%2Ftracker.coppersurfer.tk%3A6969","udp%3A%2F%2Fexodus.desync.com%3A6969"],"infoHash":"bd65e8fb5286286aab4b3c15069b4da1132841b0","infoHashBuffer":{"type":"Buffer","data":[189,101,232,251,82,134,40,106,171,75,60,21,6,155,77,161,19,40,65,176]},"announce":[],"urlList":[]}}